<?xml version="1.0" encoding="utf-8"?>
<!-- Generator: Adobe Illustrator 26.0.2, SVG Export Plug-In . SVG Version: 6.00 Build 0)  -->
<svg version="1.1" xmlns="http://www.w3.org/2000/svg" xmlns:xlink="http://www.w3.org/1999/xlink" x="0px" y="0px"
	 viewBox="0 0 140 40" enable-background="new 0 0 140 40" xml:space="preserve">
<g id="guides" display="none">
</g>
<g id="images">
</g>
<g id="Layer_5">
	<polygon fill="#23BCEE" points="34.9377,21.2812 34.9377,37.7668 15.9406,35.1518 15.9406,21.2812 	"/>
	<polygon fill="#23BCEE" points="14.3607,21.2812 14.3607,34.9345 0.0867,32.9714 0.0867,21.283 	"/>
	<polygon fill="#23BCEE" points="14.3607,5.7053 14.3607,19.5151 0.0849,19.5151 0.0849,7.6721 	"/>
	<polygon fill="#23BCEE" points="34.9359,2.8693 34.9359,19.5133 15.9406,19.5133 15.9406,5.4862 	"/>
	<g>
		<path fill="#23BCEE" d="M44.4044,6.6483c0,2.2382,0,4.4481,0,6.6863c-0.3116,0-0.6233,0-0.9349,0c0-2.7765,0-5.5247,0-8.3295
			c0.3966,0,0.7933,0,1.1899,0c0.0567,0,0.1133,0.1133,0.17,0.1983c0.765,1.7282,1.5299,3.4565,2.2949,5.1847
			c0.1983,0.425,0.3683,0.8499,0.595,1.3316c0.1417-0.34,0.2833-0.6233,0.425-0.9066c0.8499-1.8699,1.6999-3.7398,2.5215-5.6097
			c0.085-0.17,0.17-0.2267,0.34-0.1983c0.3116,0,0.6516,0,0.9916,0c0,2.8048,0,5.553,0,8.3295c-0.3116,0-0.6233,0-0.9633,0
			c0-2.2382,0-4.4481,0-6.6863h-0.0283c-0.0283,0.0567-0.0567,0.1133-0.085,0.17c-0.9349,2.0965-1.8699,4.2214-2.8048,6.3463
			c-0.0567,0.17-0.1417,0.2267-0.3116,0.2267s-0.2833-0.0283-0.3683-0.1983c-0.9349-2.1249-1.8982-4.2497-2.8332-6.3746
			c-0.0283-0.0567-0.0567-0.1133-0.085-0.1417C44.4327,6.6483,44.4327,6.6483,44.4044,6.6483z"/>
		<path fill="#23BCEE" d="M84.8902,5.3451c-0.2266-0.0283-0.425-0.1133-0.595-0.1133c-0.5666-0.0283-0.9349,0.2833-0.9916,0.8499
			c-0.0567,0.425,0,0.8499,0,1.3033c0.7366,0,1.5016,0,2.3232,0c0-0.3683,0.0283-0.765,0-1.1333c0-0.2267,0.0567-0.34,0.2833-0.3683
			c0.2266-0.0567,0.425-0.1417,0.68-0.2267c0,0.595,0,1.1616,0,1.7566c0.51,0,0.9916,0,1.4732,0c0,0.2833,0,0.5383,0,0.8216
			c-0.4816,0-0.9633,0-1.4732,0c0,0.085,0,0.17,0,0.255c0,1.0199,0,2.0682,0,3.0881c0,0.0567,0,0.1133,0,0.1983
			c0.0283,0.8216,0.595,1.1616,1.3599,0.8499c0.0283-0.0283,0.0567-0.0283,0.1417-0.0567c0,0.255,0,0.4816,0,0.7366
			c0,0.0567-0.085,0.1133-0.1417,0.1417c-0.5383,0.17-1.0766,0.1983-1.5866-0.0567c-0.595-0.2833-0.7366-0.8783-0.7366-1.4732
			c-0.0283-1.1049,0-2.2099,0-3.3148c0-0.085,0-0.17,0-0.2833c-0.7933,0-1.5582,0-2.3515,0c0,1.6999,0,3.3998,0,5.0997
			c-0.3116,0-0.6233,0-0.9349,0c0-1.6999,0-3.3998,0-5.128c-0.34,0-0.68,0-0.9916,0c0-0.2833,0-0.5383,0-0.8216
			c0.3117,0,0.6516,0,0.9916,0c0-0.3116-0.0283-0.595,0-0.8783c0.0283-0.34,0.0567-0.7083,0.1983-1.0199
			c0.3966-0.9633,1.3033-1.2183,2.2382-1.0483c0.1133,0.0283,0.1983,0.085,0.17,0.2267
			C84.8619,4.8918,84.8902,5.1184,84.8902,5.3451z"/>
		<path fill="#23BCEE" d="M67.2963,13.5046c-1.6432,0-2.7765-1.0766-2.8898-2.7198c-0.0283-0.6233,0-1.2183,0.255-1.7849
			C65.1431,7.8383,66.078,7.3,67.3246,7.2716c1.0199-0.0283,1.8982,0.2833,2.4649,1.1899c0.3116,0.4816,0.425,1.0199,0.4816,1.5866
			c0.0567,0.7083-0.0283,1.3882-0.3683,1.9832C69.3362,13.0513,68.4296,13.5046,67.2963,13.5046z M69.3078,10.4448
			c-0.0567-0.34-0.085-0.6516-0.1417-0.9633c-0.17-0.7933-0.7366-1.3033-1.5299-1.3882c-0.9349-0.1133-1.6432,0.255-2.0115,1.0199
			c-0.2267,0.4816-0.2833,1.0199-0.255,1.5582c0.0567,1.1899,0.7083,1.9265,1.8132,2.0115c0.9349,0.085,1.6716-0.3116,1.9266-1.2183
			C69.2228,11.1247,69.2512,10.7564,69.3078,10.4448z"/>
		<path fill="#23BCEE" d="M78.0623,13.5046c-1.6432,0-2.8048-1.1049-2.8898-2.8048c-0.0283-0.6233,0.0283-1.2466,0.2833-1.8132
			c0.5666-1.3033,1.7849-1.7566,3.0881-1.6432c1.0483,0.085,1.8132,0.6233,2.2382,1.6149c0.2267,0.595,0.2833,1.2183,0.2267,1.8416
			c-0.0283,0.4533-0.1417,0.9066-0.3683,1.3316C80.1588,13.023,79.2522,13.5046,78.0623,13.5046z M80.1022,10.4731
			c-0.0567-0.3683-0.0567-0.6233-0.1133-0.9066c-0.17-0.8216-0.7366-1.3882-1.5299-1.4732
			c-0.9066-0.1133-1.6716,0.255-2.0399,1.0199c-0.3117,0.6516-0.34,1.3316-0.1983,2.0115c0.1983,0.9633,0.7933,1.4732,1.7566,1.5582
			c0.8783,0.085,1.6432-0.34,1.8982-1.1333C79.9889,11.1814,80.0455,10.7848,80.1022,10.4731z"/>
		<path fill="#23BCEE" d="M74.3509,8.4899c-0.4816-0.3116-0.9633-0.4533-1.5016-0.425c-0.6233,0.0283-1.0199,0.51-0.8499,1.0766
			c0.0567,0.17,0.1983,0.3683,0.3683,0.4816c0.2833,0.17,0.595,0.2833,0.8783,0.4533c0.255,0.1417,0.5383,0.2833,0.7649,0.4533
			c0.8216,0.595,0.85,1.8416,0.0567,2.4648c-0.255,0.1983-0.5666,0.3683-0.8783,0.425c-0.68,0.17-1.3599,0.1133-2.0115-0.17
			c-0.17-0.0567-0.2267-0.17-0.1983-0.34c0.0283-0.255,0-0.4816,0-0.7933c0.1133,0.0567,0.17,0.1133,0.2267,0.1417
			c0.51,0.34,1.0766,0.4816,1.6999,0.3683c0.425-0.0567,0.6516-0.255,0.7366-0.6233c0.085-0.3683-0.0567-0.68-0.425-0.8783
			c-0.3116-0.17-0.6233-0.3116-0.9349-0.4816c-0.1417-0.0567-0.2833-0.1417-0.3966-0.1983
			c-0.6516-0.3683-0.9633-0.9066-0.8783-1.6432c0.085-0.7083,0.51-1.1333,1.1333-1.3882c0.68-0.255,1.3599-0.2267,2.0399,0.0283
			c0.1417,0.0567,0.1983,0.1133,0.17,0.2833C74.3225,7.9516,74.3509,8.2066,74.3509,8.4899z"/>
		<path fill="#23BCEE" d="M60.1851,12.2013c0,0.2833,0,0.5383,0,0.7933c0,0.0567-0.1133,0.1417-0.17,0.17
			c-1.5016,0.7366-3.8814,0.3116-4.2497-2.1249c-0.1417-0.9633,0-1.8982,0.6233-2.6915c0.7083-0.9066,1.6716-1.1899,2.7765-1.0766
			C59.4484,7.3,59.7601,7.4133,60.0434,7.47c0.1417,0.0283,0.17,0.1133,0.17,0.255c0,0.255,0,0.51,0,0.7366
			c-0.34-0.1133-0.6233-0.255-0.9349-0.34c-1.2749-0.2833-2.3799,0.51-2.5215,1.8132c-0.0567,0.5383-0.0567,1.0483,0.1417,1.5582
			c0.425,1.0766,1.6432,1.5016,2.7765,0.9916C59.8167,12.428,59.9584,12.3147,60.1851,12.2013z"/>
		<path fill="#23BCEE" d="M62.1966,13.3629c-0.34,0-0.6233,0-0.9349,0c0-1.9832,0-3.9664,0-5.9496c0.3116,0,0.595,0,0.9349,0
			c0,0.3683,0,0.7366,0,1.1049c0.0283,0,0.0283,0,0.0567,0c0.0567-0.1133,0.085-0.1983,0.1417-0.3116
			c0.3683-0.7083,1.0199-1.0199,1.7566-0.9066c0.1417,0.0283,0.2266,0.085,0.1983,0.2267c0,0.255,0,0.51,0,0.7083
			c-0.34-0.0283-0.6516-0.1133-0.9349-0.0567c-0.6516,0.1133-0.9349,0.6233-1.1049,1.2183c-0.085,0.2833-0.1133,0.595-0.1133,0.9066
			c-0.0283,0.9066,0,1.8416,0,2.7482C62.1966,13.1646,62.1966,13.2496,62.1966,13.3629z"/>
		<path fill="#23BCEE" d="M54.6037,13.3629c-0.3116,0-0.6233,0-0.9349,0c0-1.9832,0-3.9381,0-5.9213c0.3116,0,0.6233,0,0.9349,0
			C54.6037,9.3965,54.6037,11.3514,54.6037,13.3629z"/>
		<path fill="#23BCEE" d="M54.1504,4.6651c0.3683,0,0.6233,0.2833,0.6233,0.6233s-0.2833,0.6233-0.6516,0.6233
			s-0.595-0.255-0.595-0.6233C53.5271,4.9201,53.7821,4.6368,54.1504,4.6651z"/>
	</g>
	<g>
		<path fill="#23BCEE" d="M43.4946,17.7061c1.4265-0.2422,3.1221-0.4037,4.9793-0.4037c3.3644,0,5.7598,0.8075,7.3478,2.261
			c1.6419,1.4802,2.5839,3.5796,2.5839,6.5135c0,2.9607-0.9419,5.383-2.6107,7.0516c-1.7226,1.6957-4.5219,2.611-8.0477,2.611
			c-1.6957,0-3.0683-0.0808-4.2526-0.2155V17.7061z M45.8363,33.7477c0.5921,0.0808,1.4534,0.1076,2.3685,0.1076
			c5.0331,0,7.7248-2.7991,7.7248-7.6977c0.0268-4.2796-2.3955-6.9982-7.348-6.9982c-1.2111,0-2.1263,0.1079-2.7453,0.2424V33.7477z
			"/>
		<path fill="#23BCEE" d="M61.4196,35.5779V17.437h2.5839l5.7868,9.178c1.3188,2.1265,2.3955,4.0375,3.2298,5.8946l0.0808-0.0268
			c-0.2154-2.4226-0.2692-4.6296-0.2692-7.4556V17.437h2.207v18.1409h-2.3685l-5.7598-9.205
			c-1.2651-2.0186-2.4762-4.0912-3.3645-6.0559l-0.0807,0.0268c0.1345,2.2878,0.1614,4.468,0.1614,7.4824v7.7516
			C63.6267,35.5779,61.4196,35.5779,61.4196,35.5779z"/>
		<path fill="#23BCEE" d="M78.8333,32.7249c1.0496,0.6729,2.5569,1.1844,4.1719,1.1844c2.3955,0,3.795-1.2652,3.795-3.0954
			c0-1.6686-0.9689-2.6647-3.4182-3.5796c-2.9607-1.0765-4.7909-2.6378-4.7909-5.1677c0-2.8262,2.3415-4.9255,5.8675-4.9255
			c1.8302,0,3.2029,0.4306,3.9834,0.8881l-0.6459,1.9111c-0.5652-0.35-1.7764-0.8613-3.4183-0.8613
			c-2.4761,0-3.4182,1.4802-3.4182,2.7183c0,1.6957,1.1035,2.5299,3.6066,3.4991c3.0683,1.1842,4.6026,2.6644,4.6026,5.3291
			c0,2.7994-2.0456,5.2485-6.3252,5.2485c-1.7494,0-3.6604-0.5384-4.6293-1.1842L78.8333,32.7249z"/>
	</g>
</g>
</svg>
